<svg width="33px" height="50px" viewBox="0 0 33 50" version="1.1" xmlns="http://www.w3.org/2000/svg" xmlns:xlink="http://www.w3.org/1999/xlink">
    <g id="Page-1" stroke="none" stroke-width="1" fill="none" fill-rule="evenodd">
        <g id="peace" transform="translate(-50.000000, -312.000000)" fill="#FBC8C8">
            <g id="Group" transform="translate(50.000000, 42.000000)">
                <path d="M20.3601896,270.087668 C17.4809818,269.459483 16.868635,272.413161 16.868635,272.413161 L12.3098894,289.883051 C11.6533829,289.919293 11.0174842,289.978185 10.3889455,290.044628 L7.35517906,274.170872 C7.35517906,274.170872 7.07844539,271.164341 4.14624607,271.446723 C1.21551874,271.730614 1.49225241,274.737145 1.49225241,274.737145 L4.69382546,292.818609 L5.03238261,292.818609 L7.97635783,292.818609 L10.6009117,292.818609 L11.7019585,292.818609 L12.3923207,292.818609 L16.8082835,292.818609 C17.1144569,292.818609 17.4132704,292.85183 17.70178,292.912233 L22.6270505,273.669532 C22.6270505,273.669532 23.2393974,270.714343 20.3601896,270.087668 Z M33,298.984488 C33,300.583642 31.7385066,301.879274 30.1796717,301.879274 L29.9323778,301.879274 C28.3735429,301.879274 27.1120496,300.583642 27.1120496,298.984488 L27.1120496,292.693576 C27.1120496,291.094422 28.3735429,289.79879 29.9323778,289.79879 L30.1796717,289.79879 C31.7385066,289.79879 33,291.094422 33,292.693576 L33,298.984488 Z M22.6960867,286.778669 C21.0710124,286.778669 19.7521115,288.131683 19.7521115,289.79879 L19.7521115,293.993738 C20.648552,294.822761 21.2240991,296.011179 21.2240991,297.349093 C21.2240991,298.486168 20.8016387,299.513009 20.1274684,300.307301 C20.6294161,301.239008 21.5847361,301.879274 22.6960867,301.879274 C24.3211611,301.879274 25.640062,300.52626 25.640062,298.859153 L25.640062,289.79879 C25.640062,288.131683 24.3211611,286.778669 22.6960867,286.778669 Z M30.148024,303.389335 L29.9640256,303.389335 C28.4567102,303.389335 27.1304494,302.595043 26.3576559,301.393035 C26.1766014,301.667866 25.9587473,301.914005 25.7232293,302.143535 C25.6511019,302.212997 25.5730865,302.27189 25.4950712,302.336822 C25.3199046,302.484808 25.1373782,302.620714 24.9401318,302.741519 C24.8429807,302.800411 24.7458295,302.854773 24.6442623,302.906115 C24.4381841,303.010309 24.2247459,303.094873 24.0024757,303.165846 C23.9038526,303.196047 23.8096454,303.233798 23.7080782,303.257959 C23.381297,303.337992 23.0456838,303.389335 22.6968227,303.389335 C22.3479617,303.389335 22.0182364,303.334972 21.6943992,303.254939 C21.5825281,303.229268 21.475073,303.191517 21.3661459,303.155275 C21.1644836,303.088832 20.9716532,303.005779 20.7847108,302.912155 C20.6640078,302.851753 20.5447768,302.795881 20.4299618,302.724908 C20.1885558,302.573902 19.9618697,302.403265 19.7528475,302.209977 C19.455506,301.932126 19.1890763,301.625584 18.9726941,301.27676 L18.97711,301.27223 C18.6812405,301.445887 18.2793879,301.879274 16.8074003,301.879274 L13.0729677,301.879274 C15.7357933,303.940507 17.5433941,307.904415 17.5433941,312.449698 C17.5433941,312.866474 17.2151409,313.204728 16.8074003,313.204728 C16.4011317,313.204728 16.0714065,312.866474 16.0714065,312.449698 C16.0714065,306.622374 12.8521696,301.879274 8.89546689,301.879274 L8.71146844,301.879274 C8.30519986,301.879274 7.97547464,301.54102 7.97547464,301.124244 C7.97547464,300.707467 8.30519986,300.369214 8.71146844,300.369214 L10.9194499,300.369214 L16.8074003,300.369214 C18.4339466,300.369214 19.7528475,299.016199 19.7528475,297.349093 C19.7528475,295.681986 18.4339466,294.328972 16.8074003,294.328972 L5.03297141,294.328972 C4.98439581,294.328972 4.94023619,294.341052 4.89313258,294.344072 C4.78714947,294.348602 4.68116637,294.359173 4.57518326,294.375783 C4.48392003,294.390884 4.39560077,294.409005 4.30728151,294.431656 C4.21454629,294.457327 4.12328306,294.486018 4.03349182,294.519239 C3.94222859,294.55246 3.85390933,294.590212 3.76706206,294.632494 C3.68315877,294.674775 3.60367144,294.720077 3.52418411,294.768399 C3.4417528,294.818231 3.36373746,294.869573 3.2871941,294.928466 C3.21065074,294.987358 3.13705136,295.05078 3.06639596,295.115713 C2.99868453,295.179136 2.93391707,295.242558 2.87209359,295.312021 C2.80438216,295.386014 2.74403067,295.463027 2.68367918,295.54457 C2.62774365,295.620073 2.57622408,295.698596 2.52764849,295.78014 C2.47760091,295.864703 2.43344129,295.949266 2.39075365,296.03836 C2.34659402,296.130474 2.30832234,296.227118 2.27299464,296.325271 C2.25680277,296.373593 2.23177898,296.415875 2.21558712,296.465707 L0.617008576,301.879274 C0.465393852,302.385144 -0.0880734893,304.704597 0.0120216682,305.187817 C0.0120216682,312.449698 6.92447548,320 15.3354127,320 C24.9592677,320 32.7696339,312.100874 32.9801282,302.28095 C32.2191106,302.961987 31.2358228,303.389335 30.148024,303.389335 Z" id="Combined-Shape"></path>
            </g>
        </g>
    </g>
</svg>