<?xml version="1.0" encoding="UTF-8" standalone="no"?>
<svg width="55px" height="101px" viewBox="0 0 55 101" version="1.1" xmlns="http://www.w3.org/2000/svg" xmlns:xlink="http://www.w3.org/1999/xlink">
    <!-- Generator: Sketch 3.7.1 (28215) - http://www.bohemiancoding.com/sketch -->
    <title>Combined Shape</title>
    <desc>Created with Sketch.</desc>
    <defs></defs>
    <g id="Page-1" stroke="none" stroke-width="1" fill="none" fill-rule="evenodd">
        <g id="Desktop-HD" transform="translate(-1373.000000, -13.000000)" fill="#111111">
            <g id="Group" transform="translate(1360.000000, 0.000000)">
                <path d="M37.2716301,65.4027927 L43.87562,65.4027927 L43.87562,19.6151293 L57.6706212,19.6151293 L57.6706212,13.1578947 L23.476629,13.1578947 L23.476629,19.6151293 L37.2716301,19.6151293 L37.2716301,65.4027927 Z M19.3216187,95.547255 C19.3216187,89.3101534 24.4580553,84.2470945 30.6951568,84.2470945 C36.9322584,84.2470945 42.068695,89.3101534 42.068695,95.547255 C42.068695,101.784357 36.9322584,106.847415 30.6951568,106.847415 C24.4580553,106.847415 19.3216187,101.784357 19.3216187,95.547255 Z M43.16936,107.94808 C46.471355,104.646086 48.2324189,100.243426 48.2324189,95.547255 C48.2324189,91.364728 46.251222,87.4023341 43.609626,84.2470945 L67.750878,84.2470945 L67.750878,77.9366152 L13.8916714,77.9366152 L13.8916714,84.2470945 L17.7806877,84.2470945 C15.1390917,87.4023341 13.1578947,91.364728 13.1578947,95.547255 C13.1578947,100.243426 14.9189587,104.646086 18.2209537,107.94808 C21.5963263,111.323453 25.9989862,113.157895 30.6951568,113.157895 C35.3913274,113.157895 39.7939874,111.323453 43.16936,107.94808 Z M18.8140898,38.4579024 C20.5554141,38.4579024 21.9670364,37.0462801 21.9670364,35.3049558 C21.9670364,33.5636315 20.5554141,32.1520092 18.8140898,32.1520092 C17.0727655,32.1520092 15.6611432,33.5636315 15.6611432,35.3049558 C15.6611432,37.0462801 17.0727655,38.4579024 18.8140898,38.4579024 Z M62.5349489,38.4579024 C64.2762732,38.4579024 65.6878955,37.0462801 65.6878955,35.3049558 C65.6878955,33.5636315 64.2762732,32.1520092 62.5349489,32.1520092 C60.7936246,32.1520092 59.3820024,33.5636315 59.3820024,35.3049558 C59.3820024,37.0462801 60.7936246,38.4579024 62.5349489,38.4579024 Z" id="Combined-Shape"></path>
            </g>
        </g>
    </g>
</svg>